<svg id="عربي" xmlns="http://www.w3.org/2000/svg" xmlns:xlink="http://www.w3.org/1999/xlink" width="300" height="300" viewBox="0 0 300 300">
  <defs>
    <style>
      .cls-1, .cls-2, .cls-3, .cls-5 {
        fill-rule: evenodd;
      }

      .cls-1 {
        filter: url(#filter);
      }

      .cls-3, .cls-4 {
        fill: #fff;
      }

      .cls-5 {
        fill: #d31b00;
      }
    </style>
    <filter id="filter" x="151.188" y="198.688" width="72.593" height="43.718" filterUnits="userSpaceOnUse">
      <feFlood result="flood"/>
      <feComposite result="composite" operator="in" in2="SourceGraphic"/>
      <feBlend result="blend" in2="SourceGraphic"/>
    </filter>
  </defs>
  <path id="Color_Fill_22" data-name="Color Fill 22" class="cls-1" d="M168.764,202.058l0.211-.212,9.312-3.174h0.423l1.058,0.847V217.3l0.211,0.211H195l-0.211-1.058-0.212-1.693v-3.6l0.212-2.328L195,206.925l0.212-1.481,0.635-3.6,0.635-2.539,0.211-.635h22.22l0.847,1.058v0.423l-2.751,9.312-0.212.211H204.739a0.842,0.842,0,0,0-.423.847v2.962s-0.017.575,0,.847c0.245,2.768,5.071,3.052,5.925,3.174h12.7l0.846,0.847v9.311l-0.846.846h-43.17v1.058s-0.063.739-.212,1.482c-1.04,5.662-4.515,10.225-12.274,11.216a34.077,34.077,0,0,1-6.348,0,18.678,18.678,0,0,1-9.735-3.81c0.744-1.669,3.1-7.1,3.386-8.041,0.314-.083.474-0.169,0.716-0.249,0.185-.061.367-0.118,0.554-0.174,1.5,0.808,4.351,2.357,6.349,2.539,0.33,0,1.131-.016,1.692,0,2.047-.082,4.587-0.643,4.868-5.925V202.058Z"/>
  <path id="Color_Fill_23" data-name="Color Fill 23" class="cls-2" d="M140.2,202.058l9.735-3.386,1.269,0.847s0.022,18.1,0,18.41a11.573,11.573,0,0,1-1.9,6.2c-1.9,2.35-4.67,4.552-11.641,4.377-1.612.022-11.878-.012-12.062,0-0.535,5.094-7.355,15.948-18.834,17.141a30.96,30.96,0,0,1-6.137,0,21.018,21.018,0,0,1-19.258-18.622,38.11,38.11,0,0,1,0-6.56c0.556-4.308,3.386-11,3.386-11l8.465,2.962,0.423,0.847a1.833,1.833,0,0,1,0,.846,25.485,25.485,0,0,0-2.328,7.83,18.258,18.258,0,0,0,0,1.905c0.108,5.761,5.316,10.546,11.216,10.792,0.586,0.031,1.447,0,1.693,0,4.822-.4,8.663-3.511,9.946-6.137h-7.618a6.806,6.806,0,0,1-.847-1.269,0.533,0.533,0,0,1,0-.424q1.8-4.655,3.6-9.311c10.158,0,30.333.02,30.473,0a0.788,0.788,0,0,0,.423-0.846v-14.6Z"/>
  <path id="Ellipse_1_copy_3" data-name="Ellipse 1 copy 3" class="cls-2" d="M143.37,234.224a5.714,5.714,0,1,1-5.714,5.714A5.713,5.713,0,0,1,143.37,234.224Z"/>
  <path id="Ellipse_1_copy_4" data-name="Ellipse 1 copy 4" class="cls-2" d="M98.507,247.556a5.714,5.714,0,1,1-5.714,5.714A5.714,5.714,0,0,1,98.507,247.556Z"/>
  <path id="Ellipse_1_copy_5" data-name="Ellipse 1 copy 5" class="cls-2" d="M108.453,247.556a5.714,5.714,0,1,1-5.714,5.714A5.713,5.713,0,0,1,108.453,247.556Z"/>
  <g>
    <g id="feel">
      <path id="Rounded_Rectangle_1" data-name="Rounded Rectangle 1" class="cls-3" d="M133.423,108.734l153,0.212a2.52,2.52,0,0,1,2.117,2.539l2.116,16.507c0,1.168-1.794,5.5-2.963,5.5-27.7.175-90.739,0.452-102.092-.212-2.063-.12-4.844-1.546-7.526-2.328-2.077.67-4.776,2.2-7,2.328-8.285.478-25.559,0.21-37.653,0-0.561,0-2.989.608-3.385,0.212s1.269-1.744,1.269-2.328L127.075,110C127.075,108.835,132.255,108.734,133.423,108.734Z"/>
      <path id="Color_Fill_19" data-name="Color Fill 19" class="cls-3" d="M275.621,108.469c-0.889-1.04.221-2.909,0.221-2.909l-0.634-2.751-3.175-2.751L254.046,92.44l-18.2-6.772-9.523-4.021-3.174-1.058-0.635-1.27-0.635-1.9-0.212-1.27,15.66-16.93,5.079,1.693,32.377,12.485,6.772,2.963,6.349,4.021,3.174,2.54,3.809,4.021,2.116,3.6,1.9,4.867,0.635,6.56-0.635,5.925-1.481,5.925-1.482,4.021-2.116,5.5-3.174,6.349-1.27,2.751-5.714-.424-13.755-13.966,2.328-9.312C272.484,108.488,276.558,109.566,275.621,108.469Z"/>
      <path id="Color_Fill_20" data-name="Color Fill 20" class="cls-3" d="M275.621,108.469c-0.889-1.04.221-2.909,0.221-2.909l-0.634-2.751-3.175-2.751L254.046,92.44l-18.2-6.772-9.523-4.021-3.174-1.058-0.635-1.27-0.635-1.9-0.212-1.27,15.66-16.93,5.079,1.693,32.377,12.485,6.772,2.963,6.349,4.021,3.174,2.54,3.809,4.021,2.116,3.6,1.9,4.867,0.635,6.56-0.635,5.925-1.481,5.925-1.482,4.021-2.116,5.5-3.174,6.349-1.27,2.751-5.714-.424-13.755-13.966,2.328-9.312C272.484,108.488,276.558,109.566,275.621,108.469Zm-110.455.9,0.635-4.444V76.78l19.892-7.2,1.693-.423L189.5,70.22l1.482,1.693-0.212,5.714-0.212,26.452,0.212,3.6,0.846,1.058,1.27,0.424,1.481,2.751-8.041,1.693s-16.894-.887-17.988-1.058a43.082,43.082,0,0,1-5.29-2.117l0.212-1.269Z"/>
      <path id="Color_Fill_24" data-name="Color Fill 24" class="cls-3" d="M163.473,110.639l1.482-.846,0.423-2.54L165.8,76.78l21.585-7.83,3.174,2.116,0.424,36.4,0.211,1.269,0.635,0.212,1.058,0.212-0.211,1.058-0.424.846-27.3.423Z"/>
    </g>
    <path class="cls-2" d="M193.523,133.282h1.905v1.481h-1.905v-1.481Z"/>
    <path id="Color_Fill_2" data-name="Color Fill 2" class="cls-2" d="M131.731,108.1h33.012l0.212,1.269H131.519l-0.635-1.269h0.847Zm33.224-31.108v30.261l-0.212.847h0l0.212,1.269h0.211l0.423-.211,0.212-.424,0.212-.634,0.211-.635V76.78"/>
    <path id="Color_Fill_3" data-name="Color Fill 3" class="cls-2" d="M164.955,76.992V76.357l0.423-.635,1.27-.635,5.713-1.9L187.174,68.1l0.212,1.481-20.527,6.983-0.635.212v0.846l-1.269.212V76.992Z"/>
    <path id="Color_Fill_4" data-name="Color Fill 4" class="cls-2" d="M164.955,76.992V76.357l0.423-.635,1.27-.635,5.713-1.9L187.174,68.1a10.3,10.3,0,0,1,.212,1.481l-20.527,6.983-0.635.212v0.846l-1.269.212V76.992Zm26.452-6.137a21.022,21.022,0,0,0-4.233-2.751l-0.423.423v0.635l0.212,0.212,0.423,0.212,2.751,1.9v0.423h1.27V71.278A3.9,3.9,0,0,0,191.407,70.855Z"/>
    <path class="cls-2" d="M190.137,71.7h1.27V105.56h-1.27V71.7Zm-3.6-3.174a0.719,0.719,0,0,0,0,.635,0.732,0.732,0,0,0,1.058.212,0.718,0.718,0,0,0,0-.847,0.763,0.763,0,0,0-.212-0.212"/>
    <path id="Color_Fill_5" data-name="Color Fill 5" class="cls-2" d="M190.137,105.56v1.27a5.173,5.173,0,0,0,.212,1.27,1.973,1.973,0,0,0,.846,1.269c0.116-.009.635,0,0.635,0a6.051,6.051,0,0,0,.212-1.058,0.331,0.331,0,0,0-.212,0c-0.162-.039-0.358-0.169-0.423-1.269-0.019-.577,0-1.482,0-1.482h-1.27Z"/>
    <path id="Color_Fill_6" data-name="Color Fill 6" class="cls-2" d="M190.137,105.56v1.27a5.173,5.173,0,0,0,.212,1.27,1.973,1.973,0,0,0,.846,1.269c0.116-.009,1.058,0,1.058,0s0.01-1.128,0-1.269c-0.154,0-.238,0-0.423,0-0.162-.04-0.358.042-0.423-1.058-0.019-.577,0-1.482,0-1.482h-1.27Z"/>
    <path class="cls-2" d="M192.042,108.1h11.639v1.269H192.042V108.1Z"/>
    <path id="Color_Fill_17_copy_2" data-name="Color Fill 17 copy 2" class="cls-2" d="M194.793,109.369V108.1h79.991v1.269H194.793Z"/>
    <path class="cls-2" d="M199.872,108.1h20.95v1.269h-20.95V108.1Zm74.7,0,0.211-.635,0.212-.847v-1.693l-0.212-.635-0.634-1.269,1.058-.635,0.846,1.27,0.212,1.269v1.482l-0.212,1.058-0.212.635-0.211,1.058-0.212.211h-0.846"/>
    <path id="Color_Fill_9" data-name="Color Fill 9" class="cls-2" d="M274.15,103.021l-1.9-1.905-2.116-1.269L268.436,99l-2.116-1.058-3.809-1.481,0.423-1.27,1.693,0.635,2.751,1.058,2.539,1.27L271.4,99l1.693,1.058,1.27,1.058L275,101.751l0.423,0.635,0.212,0.423-0.423.423h-0.847Z"/>
    <path id="Color_Fill_10" data-name="Color Fill 10" class="cls-2" d="M274.15,103.021l-1.9-1.905-2.116-1.269L268.436,99l-2.116-1.058-3.809-1.481,0.423-1.27,1.693,0.635,2.751,1.058,2.539,1.27L271.4,99l1.693,1.058,1.27,1.058L275,101.751l0.423,0.635,0.212,0.423-0.423.423h-0.847ZM224.419,80.378l-0.635,1.27,39.573,15.236,0.635-1.27Z"/>
  </g>
  <g>
    <path class="cls-2" d="M262.722,95.191a0.331,0.331,0,1,1-.423.317A0.382,0.382,0,0,1,262.722,95.191Z"/>
    <path class="cls-2" d="M262.511,95.614a0.4,0.4,0,1,1-.635.318A0.567,0.567,0,0,1,262.511,95.614Z"/>
    <path class="cls-2" d="M262.616,95.826a0.317,0.317,0,1,1-.317.317A0.317,0.317,0,0,1,262.616,95.826ZM223.784,81.647l-1.481-.635-0.423-.423-0.212-.212-0.211-1.058-0.212-1.058-0.212-.846c-0.07-.282-0.141-0.564-0.211-0.847,0.07-.282.141-0.564,0.211-0.847l0.212-.212,0.635-.847,1.27-1.27L224,72.336l1.27,0.635-1.482,1.693-1.269,1.27-0.424.635,0.212,0.847,0.212,0.635c0.07,0.282.141,0.564,0.211,0.846s0.141,0.564.212,0.847l0.423,0.212,0.423,0.212,0.635,0.423,0.212,0.212v0.423l-0.423.212Z"/>
    <path id="Color_Fill_11" data-name="Color Fill 11" class="cls-2" d="M225.266,72.971L237.54,59.639v-1.27l-0.847.212L224,72.336l0.846,1.058Z"/>
    <path id="Color_Fill_12" data-name="Color Fill 12" class="cls-2" d="M237.54,58.369l5.5,2.116-0.424,1.27-5.078-2.116v-1.27Z"/>
    <path id="Color_Fill_13" data-name="Color Fill 13" class="cls-2" d="M243.042,60.486l23.278,8.888-0.847,1.27-23.278-9.1V60.7l0.635-.212h0.212Z"/>
    <path id="Color_Fill_14" data-name="Color Fill 14" class="cls-2" d="M265.05,70.432c1.41,0.468,9.4,3.281,13.544,5.079a45.864,45.864,0,0,1,12.273,7.83,5.214,5.214,0,0,0,1.27-.423c-2.049-2.342-5.517-4.69-12.909-8.465-4.893-1.966-8.618-3.4-13.543-5.29A8.754,8.754,0,0,0,265.05,70.432Z"/>
    <path id="Color_Fill_15" data-name="Color Fill 15" class="cls-2" d="M290.656,83.129l0.846-.846c3.267,2.775,5.123,5.671,7.195,10.369,1.308,3.654,1.36,9.7,1.27,11s-0.776.987-1.27,1.058a31.019,31.019,0,0,0-.846-10.37C296.685,88.518,290.656,83.129,290.656,83.129Z"/>
    <path id="Color_Fill_16" data-name="Color Fill 16" class="cls-2" d="M298.7,104.714s-1.384,8.463-3.386,12.7a86.1,86.1,0,0,1-3.6,8.465c-2.062,4.418-3.809,7.618-3.809,7.618a6.929,6.929,0,0,0,0,1.269c0.923-.192.842-0.252,2.962-4.232,1.5-2.933,2-4.194,2.963-6.137a106.142,106.142,0,0,0,4.656-12.485,56.515,56.515,0,0,0,1.481-8.253l-1.27.211v0.847Z"/>
    <path id="Color_Fill_17" data-name="Color Fill 17" class="cls-2" d="M194.793,134.763v-1.481H287.9v1.481H194.793Z"/>
    <path id="Color_Fill_17_copy_3" data-name="Color Fill 17 copy 3" class="cls-2" d="M117.975,134.763v-1.481h43.594v1.481H117.975Z"/>
    <path id="Color_Fill_18" data-name="Color Fill 18" class="cls-2" d="M161.569,133.282c9.205,0.109,14.708-2.166,16.506-3.174,0,0.272-.027,1.073,0,1.481-4.3,2.833-13.286,3.066-16.718,3.174C160.676,134.546,161,133.391,161.569,133.282Z"/>
    <path id="Color_Fill_18_copy" data-name="Color Fill 18 copy" class="cls-2" d="M194.369,133.282c-9.205.109-14.708-2.166-16.506-3.174,0,0.272.028,1.073,0,1.481,4.3,2.833,13.286,3.066,16.718,3.174C195.262,134.546,194.941,133.391,194.369,133.282Z"/>
  </g>
  <circle cx="167.281" cy="157.828" r="13.125"/>
  <path class="cls-3" d="M167.325,147.07a10.8,10.8,0,1,1-10.8,10.8A10.8,10.8,0,0,1,167.325,147.07Z"/>
  <path id="Ellipse_1_copy" data-name="Ellipse 1 copy" class="cls-2" d="M188.867,144.71a13.12,13.12,0,1,1-13.12,13.12A13.12,13.12,0,0,1,188.867,144.71Z"/>
  <path id="Ellipse_2_copy_2" data-name="Ellipse 2 copy 2" class="cls-3" d="M188.91,147.07a10.8,10.8,0,1,1-10.8,10.8A10.8,10.8,0,0,1,188.91,147.07Zm-22.58.6a7.09,7.09,0,1,1-7.089,7.089A7.089,7.089,0,0,1,166.33,147.672Z"/>
  <circle class="cls-4" cx="169.516" cy="156.031" r="7.516"/>
  <path class="cls-3" d="M168.34,151.905a6.137,6.137,0,1,1-6.136,6.136A6.136,6.136,0,0,1,168.34,151.905Z"/>
  <circle class="cls-4" cx="167.594" cy="154.75" r="6.031"/>
  <circle class="cls-4" cx="168.875" cy="158.359" r="8.563"/>
  <path class="cls-3" d="M170.033,148.73a7.83,7.83,0,1,1-7.829,7.83A7.83,7.83,0,0,1,170.033,148.73Zm-0.423.847a8.676,8.676,0,1,1-8.676,8.676A8.676,8.676,0,0,1,169.61,149.577Z"/>
  <circle class="cls-4" cx="169.078" cy="152.859" r="3.703"/>
  <path class="cls-3" d="M173.419,153.809a0.212,0.212,0,1,1-.211.212A0.212,0.212,0,0,1,173.419,153.809Z"/>
  <circle class="cls-4" cx="172.156" cy="159.094" r="0.219"/>
  <circle class="cls-4" cx="171.609" cy="156.031" r="5.609"/>
  <path class="cls-3" d="M164.743,148.307a1.27,1.27,0,1,1-1.27,1.27A1.271,1.271,0,0,1,164.743,148.307Z"/>
  <path class="cls-3" d="M170.245,149.577a8.253,8.253,0,1,1-8.253,8.253A8.253,8.253,0,0,1,170.245,149.577Z"/>
  <circle class="cls-4" cx="178.188" cy="158.047" r="2.438"/>
  <path class="cls-3" d="M177.546,155.5c2.162,0,3.915.569,3.915,1.27s-1.753,1.269-3.915,1.269-3.915-.568-3.915-1.269S175.384,155.5,177.546,155.5Z"/>
  <circle id="Ellipse_1_copy_2" data-name="Ellipse 1 copy 2" cx="255.313" cy="157.828" r="13.125"/>
  <path id="Ellipse_2_copy_3" data-name="Ellipse 2 copy 3" class="cls-3" d="M255.358,147.07a10.8,10.8,0,1,1-10.8,10.8A10.8,10.8,0,0,1,255.358,147.07Z"/>
  <path class="cls-2" d="M121.361,57.523c26.127-4.611,42.331-2.861,45.71-2.539s9.025,1.715,9.1,4.867c-1.1,3.251-9.027,9.366-23.066,15.025-7.176,2.9-15.083,6.092-23.49,9.1-12.211,4.369-22.99,8.261-32.8,12.486-11.321,4.816-40.136,17.711-67.718,30.9-12.748,5.813-22.361,8.775-27.51,7.406-4.058-1.269,1.446-9.007,4.021-11.85,9.226-10.513,29.423-30.5,57.983-44.44C83.344,68.833,107.2,59.811,121.361,57.523Zm-23.7,14.6c24.183-7.287,47.739-9.106,49.519-4.444,1.186,5-19.951,12.61-52.9,26.452-43.264,18.174-64.75,29.8-68.988,26.24-2.558-3.837,11.42-16.066,30.685-28.78A179.431,179.431,0,0,1,97.66,72.125Z"/>
  <path class="cls-5" d="M90.888,77.838c15.175-4.27,21.068-6.073,37.88-5.925,0.276,0,3.193,3.823,2.963,16.295,0.126,13.242.067,46.556,0,46.556-11.341.054-34.492,0.145-47.615,0.424a43.626,43.626,0,0,1-23.7-6.984c-4.095-2.665-4.685-2.731-9.523-7.83a63.254,63.254,0,0,1-8.253-11.427C57.273,94.035,73.572,82.71,90.888,77.838Zm40,5.29"/>
  <path id="Ellipse_2_copy" data-name="Ellipse 2 copy" class="cls-5" d="M84.116,41.017c11.563-.129,16.823,2.64,24.125,6.137,5.935,3.219,10.052,7.794,9.734,7.83C107.287,56.178,95.832,57.747,85.6,61.12c-11.035,3.637-18.3,6.224-31.954,15.025-0.733.472-10.786,8.126-15.66,12.485-0.035.031-.141-10.773,3.6-19.046,5.827-11.157,9.817-16.262,19.892-22.22A43.615,43.615,0,0,1,84.116,41.017Z"/>
  <path id="Color_Fill_1" data-name="Color Fill 1" class="cls-5" d="M107.394,134.975c-0.925,10.109-12.523,8.167-16.717,7.195-2.753-.378-9.122-3.918-9.523-4.444a28.33,28.33,0,0,1-3.386,1.058c0.05,0.075-7.17,16.668-7.195,16.718a42.216,42.216,0,0,0,24.548,8.676c12.006,0,17.385-1.6,21.8-4.02a27.893,27.893,0,0,0,10.581-9.523c2.29-3.093,3.33-8.845,3.6-10.793a50.655,50.655,0,0,0,.635-6.348c-10.524-2.2-22.165-3.825-23.7-.423a8,8,0,0,0-.423,1.269,9.576,9.576,0,0,0,.483-1.039C107.9,133.262,107.581,133.635,107.394,134.975Z"/>
</svg>
