<svg id="عربي" xmlns="http://www.w3.org/2000/svg" xmlns:xlink="http://www.w3.org/1999/xlink" width="499.95" height="499.95" viewBox="0 0 1500 1500">
  <defs>
    <style>
      .cls-1, .cls-2, .cls-3, .cls-5 {
        fill-rule: evenodd;
      }

      .cls-1 {
        filter: url(#filter);
      }

      .cls-3, .cls-4 {
        fill: #fff;
      }

      .cls-5 {
        fill: #d31b00;
      }
    </style>
    <filter id="filter" x="774" y="1040" width="343" height="206.69" filterUnits="userSpaceOnUse">
      <feFlood result="flood"/>
      <feComposite result="composite" operator="in" in2="SourceGraphic"/>
      <feBlend result="blend" in2="SourceGraphic"/>
    </filter>
  </defs>
  <path id="Color_Fill_22" data-name="Color Fill 22" class="cls-1" d="M857,1056l1-1,44-15h2l5,4v84l1,1h71l-1-5-1-8v-17l1-11,1-9,1-7,3-17,3-12,1-3h105l4,5v2l-13,44-1,1h-57s-2,.78-2,4v14s-0.08,2.71,0,4c1.16,13.08,23.97,14.42,28,15h60l4,4v44l-4,4H909v5s-0.3,3.49-1,7c-4.914,26.76-21.339,48.32-58,53-7.254.86-23.136,1.01-30,0s-26.343-2.56-46-18c3.514-7.89,14.628-33.57,16-38,1.482-.39,2.24-0.8,3.383-1.18,0.875-.28,1.735-0.55,2.617-0.82,7.1,3.82,20.562,11.14,30,12,1.56,0,5.348-.08,8,0,9.672-.39,21.674-3.04,23-28V1056Z"/>
  <path id="Color_Fill_23" data-name="Color Fill 23" class="cls-2" d="M722,1056l46-16,6,4s0.1,85.56,0,87c-1.029,13.28-3.7,21.85-8.991,29.32-8.961,11.1-22.067,21.5-55.009,20.68-7.618.1-56.13-.06-57,0-2.525,24.07-34.753,75.36-89,81a146.5,146.5,0,0,1-29,0c-64.375-6.82-88.078-58.2-91-88-1.169-9.54-.584-26.71,0-31,2.63-20.35,16-52,16-52l40,14,2,4s0.582,2.62,0,4c-7.425,13.47-9.69,29.87-11,37a86.534,86.534,0,0,0,0,9c0.51,27.23,25.12,49.84,53,51,2.766,0.15,6.835,0,8,0,22.785-1.89,40.938-16.59,47-29H563s-3.432-4.2-4-6a2.5,2.5,0,0,1,0-2q8.5-22.005,17-44c48,0,143.337.09,144,0,1.137-.09,2-1.91,2-4v-69Z"/>
  <circle id="Ellipse_1_copy_3" data-name="Ellipse 1 copy 3" cx="737" cy="1235" r="27"/>
  <circle id="Ellipse_1_copy_4" data-name="Ellipse 1 copy 4" cx="525" cy="1298" r="27"/>
  <circle id="Ellipse_1_copy_5" data-name="Ellipse 1 copy 5" cx="572" cy="1298" r="27"/>
  <g>
    <g id="feel">
      <path id="Rounded_Rectangle_1" data-name="Rounded Rectangle 1" class="cls-3" d="M690,615l723,1c5.52,0,10,6.477,10,12l10,78c0,5.523-8.48,26-14,26-130.92.827-428.785,2.136-482.436-1-9.749-.57-22.889-7.3-35.564-11-9.814,3.162-22.57,10.395-33.072,11-39.154,2.256-120.78.993-177.928,0-2.651,0-14.125,2.875-16,1-1.81-1.81,6-8.239,6-11L660,621C660,615.477,684.477,615,690,615Z"/>
      <path id="Color_Fill_19" data-name="Color Fill 19" class="cls-3" d="M1361.95,613.748C1357.75,608.83,1363,600,1363,600l-3-13-15-13-85-36-86-32-45-19-15-5-3-6-3-9-1-6,74-80,24,8,153,59,32,14,30,19,15,12,18,19,10,17,9,23,3,31-3,28-7,28-7,19-10,26-15,30-6,13-27-2-65-66,11-44C1347.13,613.837,1366.38,618.932,1361.95,613.748Z"/>
      <path id="Color_Fill_20" data-name="Color Fill 20" class="cls-3" d="M1361.95,613.748C1357.75,608.83,1363,600,1363,600l-3-13-15-13-85-36-86-32-45-19-15-5-3-6-3-9-1-6,74-80,24,8,153,59,32,14,30,19,15,12,18,19,10,17,9,23,3,31-3,28-7,28-7,19-10,26-15,30-6,13-27-2-65-66,11-44C1347.13,613.837,1366.38,618.932,1361.95,613.748ZM840,618l3-21V464l94-34,8-2,10,5,7,8-1,27-1,125,1,17,4,5,6,2,7,13-38,8s-79.834-4.191-85-5-25-10-25-10l1-6Z"/>
      <path id="Color_Fill_24" data-name="Color Fill 24" class="cls-3" d="M832,624l7-4,2-12,2-144,102-37,15,10,2,172,1,6,3,1,5,1-1,5-2,4-129,2Z"/>
    </g>
    <rect x="974" y="731" width="9" height="7"/>
    <path id="Color_Fill_2" data-name="Color Fill 2" class="cls-2" d="M682,612H838l1,6H681l-3-6h4ZM839,465V608l-1,4h0l1,6h1l2-1,1-2,1-3,1-3V464"/>
    <path id="Color_Fill_3" data-name="Color Fill 3" class="cls-2" d="M839,465v-3l2-3,6-3,27-9,70-24,1,7-97,33-3,1v4l-6,1v-4Z"/>
    <path id="Color_Fill_4" data-name="Color Fill 4" class="cls-2" d="M839,465v-3l2-3,6-3,27-9s69.674-23.891,70-24,1,7,1,7l-97,33-3,1v4l-6,1v-4Zm125-29a99.313,99.313,0,0,0-20-13l-2,2v3l1,1,2,1,13,9v2h6v-3A17.949,17.949,0,0,0,964,436Z"/>
    <path class="cls-2" d="M958,440h6V600h-6V440Zm-17-15a3.417,3.417,0,0,0,0,3c0.948,1.714,3.747,2.27,5,1,0.978-.991.763-2.843,0-4a3.579,3.579,0,0,0-1-1"/>
    <path id="Color_Fill_5" data-name="Color Fill 5" class="cls-2" d="M958,600v6a24.542,24.542,0,0,0,1,6c1.106,3.373,1.258,3.658,4,6,0.545-.045,3,0,3,0s1.182-4.364,1-5a1.577,1.577,0,0,0-1,0c-0.765-.185-1.69-0.8-2-6-0.091-2.726,0-7,0-7h-6Z"/>
    <path id="Color_Fill_6" data-name="Color Fill 6" class="cls-2" d="M958,600v6a24.542,24.542,0,0,0,1,6c1.106,3.373,1.258,3.658,4,6,0.545-.045,5,0,5,0s0.045-5.333,0-6c-0.729.022-1.128,0.021-2,0-0.765-.185-1.69.2-2-5-0.091-2.726,0-7,0-7h-6Z"/>
    <rect x="967" y="612" width="55" height="6"/>
    <path id="Color_Fill_17_copy_2" data-name="Color Fill 17 copy 2" class="cls-2" d="M980,618v-6h378v6H980Z"/>
    <path id="Color_Fill_25" data-name="Color Fill 25" class="cls-2" d="M1350,612v6h11l4-13v-9c-4.83-24.126-33.36-33.109-71-48-6.86-2.715-131.43-51-176-67-1.32,1.1-3.03,3.032-4,4,18.11,8.135,173.23,67.6,183,71a333.419,333.419,0,0,1,43,19c7.13,4.534,14.61,11.917,16,15,5.26,7.252,2.33,19.34,1,22h-7Z"/>
  </g>
  <g>
    <path id="Color_Fill_26" data-name="Color Fill 26" class="cls-2" d="M1127,485c-0.56,0-.68,1.112-1.52,2a10.574,10.574,0,0,0-1.48,2c-5.67-2.333-15.01-5.652-17-7-0.86-3.779-2.32-11.4-2.52-12.4-0.16-.826-0.32-1.677-0.48-2.6a19.838,19.838,0,0,1,0-8c1.08-1.174,17-19,17-19l6,3-18,19,3,16C1117,480.333,1127.05,485,1127,485Z"/>
    <path id="Color_Fill_11" data-name="Color Fill 11" class="cls-2" d="M1124,446l58-63v-6l-4,1-60,65,4,5Z"/>
    <path id="Color_Fill_27" data-name="Color Fill 27" class="cls-2" d="M1438,499c1.59-.477,5-3,5-3a271.38,271.38,0,0,0-42.76-31.4c-18.25-10.828-40.64-19.016-51.24-23.6-24.3-9.293-153.2-58.436-155.42-59.333-0.05-.02-0.66-0.27-1-0.406-1.1-.45-1.38-0.572-5.58-2.261-3.31-1.69-3.5-2-4.93-2.1A8.15,8.15,0,0,0,1178,378c-0.24.309-3,4-3,4l4,4s1.26-2.9,3-3c1.52,0.048,93.31,36.976,165,64C1371.11,456.033,1406.75,468.862,1438,499Z"/>
    <path id="Color_Fill_29" data-name="Color Fill 29" class="cls-2" d="M1355,450a9.161,9.161,0,0,1,4-4c50.07,17.033,103.17,52.119,114,101,20.35,63.678-41.95,189.721-52,191h-20v-7h19c57.07-95.649,51.64-162.146,47-184C1449.59,485.261,1380.1,461.1,1355,450Z"/>
    <path id="Color_Fill_17" data-name="Color Fill 17" class="cls-2" d="M980,738v-7h440v7H980Z"/>
    <path id="Color_Fill_17_copy_3" data-name="Color Fill 17 copy 3" class="cls-2" d="M617,738v-7H823v7H617Z"/>
    <path id="Color_Fill_18" data-name="Color Fill 18" class="cls-2" d="M823,731c43.5,0.515,69.506-10.238,78-15,0,1.287-.129,5.069,0,7-20.335,13.385-62.784,14.485-79,15C818.782,736.97,820.3,731.515,823,731Z"/>
    <path id="Color_Fill_18_copy" data-name="Color Fill 18 copy" class="cls-2" d="M978,731c-43.5.515-69.506-10.238-78-15,0,1.287.129,5.069,0,7,20.335,13.385,62.784,14.485,79,15C982.218,736.97,980.7,731.515,978,731Z"/>
  </g>
  <circle cx="850" cy="847" r="62"/>
  <circle class="cls-4" cx="850.203" cy="847.203" r="51.047"/>
  <circle id="Ellipse_1_copy" data-name="Ellipse 1 copy" cx="952" cy="847" r="62"/>
  <path id="Ellipse_2_copy_2" data-name="Ellipse 2 copy 2" class="cls-3" d="M952.207,796.16a51.047,51.047,0,1,1-51.047,51.047A51.044,51.044,0,0,1,952.207,796.16ZM845.5,799A33.5,33.5,0,1,1,812,832.5,33.5,33.5,0,0,1,845.5,799Z"/>
  <circle class="cls-4" cx="860.5" cy="838.5" r="35.5"/>
  <circle class="cls-4" cx="855" cy="848" r="29"/>
  <circle class="cls-4" cx="851.5" cy="832.5" r="28.5"/>
  <circle class="cls-4" cx="857.5" cy="849.5" r="40.5"/>
  <path class="cls-3" d="M863,804a37,37,0,1,1-37,37A37,37,0,0,1,863,804Zm-2,4a41,41,0,1,1-41,41A41,41,0,0,1,861,808Z"/>
  <circle class="cls-4" cx="858.5" cy="823.5" r="17.5"/>
  <circle class="cls-4" cx="879" cy="829" r="1"/>
  <circle class="cls-4" cx="873" cy="853" r="1"/>
  <circle class="cls-4" cx="870.5" cy="838.5" r="26.5"/>
  <circle class="cls-4" cx="838" cy="808" r="6"/>
  <circle class="cls-4" cx="864" cy="847" r="39"/>
  <ellipse class="cls-4" cx="901.5" cy="848" rx="11.5" ry="10"/>
  <ellipse class="cls-4" cx="898.5" cy="842" rx="18.5" ry="6"/>
  <circle id="Ellipse_1_copy_2" data-name="Ellipse 1 copy 2" cx="1266" cy="847" r="62"/>
  <circle id="Ellipse_2_copy_3" data-name="Ellipse 2 copy 3" class="cls-4" cx="1266.205" cy="847.203" r="51.045"/>
  <path class="cls-2" d="M633,373c123.461-21.788,200.032-13.521,216-12s42.649,8.1,43,23c-5.2,15.362-42.66,44.258-109,71-33.908,13.69-71.274,28.788-111,43-57.7,20.644-108.64,39.037-155,59-53.5,22.761-189.663,83.693-320,146-60.242,27.469-105.667,41.467-130,35-19.177-6,6.834-42.566,19-56,43.6-49.679,139.039-144.136,274-210C453.349,426.444,566.065,383.811,633,373ZM521,442c114.277-34.435,225.589-43.029,234-21,5.607,23.632-94.278,59.586-250,125C300.558,631.88,199.027,686.822,179,670c-12.088-18.132,53.966-75.92,145-136C396.776,487.087,471.97,457.522,521,442Z"/>
  <path class="cls-5" d="M489,469c71.71-20.176,99.553-28.7,179-28,1.3,0.011,15.089,18.067,14,77,0.6,62.575.321,220,0,220-53.59.252-162.992,0.681-225,2-43.4.923-84.923-15.373-112-33-19.351-12.6-22.138-12.9-45-37-20.7-21.308-39.081-53.917-39-54C330.15,545.539,407.172,492.023,489,469Zm189,25"/>
  <path id="Ellipse_2_copy" data-name="Ellipse 2 copy" class="cls-5" d="M457,295c54.641-.609,79.5,12.475,114,29,28.046,15.212,47.5,36.832,46,37-50.506,5.646-104.636,13.06-153,29-52.144,17.186-86.471,29.41-151,71-3.462,2.231-50.97,38.4-74,59-0.163.146-.668-50.908,17-90,27.537-52.723,46.389-76.848,94-105C381.012,306.663,415.736,295.1,457,295Z"/>
  <path id="Color_Fill_1" data-name="Color Fill 1" class="cls-5" d="M567,739c-4.371,47.77-59.182,38.6-79,34-13.009-1.787-43.108-18.517-45-21-2.247.709-10.324,3.936-16,5,0.237,0.355-33.882,78.763-34,79,13.356,10.293,53.328,38.856,116,41,56.734,0,82.153-7.575,103-19,26.214-14.367,41.888-31.654,50-45,10.822-14.617,15.735-41.8,17-51,1.5-6.556,3.33-29.175,3-30-49.73-10.393-104.737-18.076-112-2a37.913,37.913,0,0,0-2,6,46.2,46.2,0,0,0,2.282-4.91C569.372,730.9,567.882,732.666,567,739Z"/>
</svg>
